<svg id="visual" viewBox="0 0 900 600" width="900" height="600" xmlns="http://www.w3.org/2000/svg" xmlns:xlink="http://www.w3.org/1999/xlink" version="1.1"><rect x="0" y="0" width="900" height="600" fill="#931C1C"></rect><path d="M0 412L90 310L180 275L270 289L360 304L450 260L540 318L630 453L720 406L810 436L900 399L900 601L810 601L720 601L630 601L540 601L450 601L360 601L270 601L180 601L90 601L0 601Z" fill="#f5730a"></path><path d="M0 380L90 305L180 332L270 376L360 436L450 309L540 418L630 367L720 382L810 378L900 465L900 601L810 601L720 601L630 601L540 601L450 601L360 601L270 601L180 601L90 601L0 601Z" fill="#e5650a"></path><path d="M0 451L90 437L180 377L270 468L360 344L450 437L540 473L630 363L720 459L810 355L900 337L900 601L810 601L720 601L630 601L540 601L450 601L360 601L270 601L180 601L90 601L0 601Z" fill="#d65809"></path><path d="M0 414L90 475L180 443L270 454L360 405L450 413L540 463L630 475L720 507L810 469L900 420L900 601L810 601L720 601L630 601L540 601L450 601L360 601L270 601L180 601L90 601L0 601Z" fill="#c64b08"></path><path d="M0 456L90 451L180 452L270 505L360 452L450 492L540 436L630 461L720 416L810 516L900 497L900 601L810 601L720 601L630 601L540 601L450 601L360 601L270 601L180 601L90 601L0 601Z" fill="#b63d06"></path><path d="M0 498L90 467L180 481L270 455L360 541L450 529L540 481L630 524L720 488L810 513L900 470L900 601L810 601L720 601L630 601L540 601L450 601L360 601L270 601L180 601L90 601L0 601Z" fill="#a63005"></path><path d="M0 555L90 502L180 557L270 493L360 506L450 519L540 506L630 504L720 521L810 542L900 487L900 601L810 601L720 601L630 601L540 601L450 601L360 601L270 601L180 601L90 601L0 601Z" fill="#972303"></path><path d="M0 572L90 570L180 549L270 557L360 545L450 573L540 560L630 526L720 580L810 573L900 565L900 601L810 601L720 601L630 601L540 601L450 601L360 601L270 601L180 601L90 601L0 601Z" fill="#871400"></path></svg>